<svg width="25" height="25" viewBox="0 0 25 25" fill="none" xmlns="http://www.w3.org/2000/svg">
<g clip-path="url(#clip0_117_162)">
<path d="M4 11.1719C4 10.1455 4.833 9.3125 5.85938 9.3125H7.45312C7.66447 9.3125 7.86716 9.39646 8.0166 9.5459C8.16604 9.69534 8.25 9.89803 8.25 10.1094C8.25 10.3207 8.16604 10.5234 8.0166 10.6729C7.86716 10.8223 7.66447 10.9062 7.45312 10.9062H5.85938C5.78893 10.9062 5.72136 10.9342 5.67155 10.984C5.62174 11.0339 5.59375 11.1014 5.59375 11.1719V19.1406C5.59375 19.2872 5.71275 19.4062 5.85938 19.4062H13.8281C13.8986 19.4062 13.9661 19.3783 14.016 19.3285C14.0658 19.2786 14.0938 19.2111 14.0938 19.1406V17.5469C14.0938 17.3355 14.1777 17.1328 14.3271 16.9834C14.4766 16.834 14.6793 16.75 14.8906 16.75C15.102 16.75 15.3047 16.834 15.4541 16.9834C15.6035 17.1328 15.6875 17.3355 15.6875 17.5469V19.1406C15.6875 19.6338 15.4916 20.1067 15.1429 20.4554C14.7942 20.8041 14.3213 21 13.8281 21H5.85938C5.36624 21 4.8933 20.8041 4.5446 20.4554C4.1959 20.1067 4 19.6338 4 19.1406V11.1719Z" fill="#BDBDBD"/>
<path d="M9.3125 5.85938C9.3125 4.833 10.1455 4 11.1719 4H19.1406C20.167 4 21 4.833 21 5.85938V13.8281C21 14.3213 20.8041 14.7942 20.4554 15.1429C20.1067 15.4916 19.6338 15.6875 19.1406 15.6875H11.1719C10.6787 15.6875 10.2058 15.4916 9.8571 15.1429C9.5084 14.7942 9.3125 14.3213 9.3125 13.8281V5.85938ZM11.1719 5.59375C11.1014 5.59375 11.0339 5.62174 10.984 5.67155C10.9342 5.72136 10.9062 5.78893 10.9062 5.85938V13.8281C10.9062 13.9747 11.0252 14.0938 11.1719 14.0938H19.1406C19.2111 14.0938 19.2786 14.0658 19.3285 14.016C19.3783 13.9661 19.4062 13.8986 19.4062 13.8281V5.85938C19.4062 5.78893 19.3783 5.72136 19.3285 5.67155C19.2786 5.62174 19.2111 5.59375 19.1406 5.59375H11.1719Z" fill="#BDBDBD"/>
</g>
<defs>
<clipPath id="clip0_117_162">
<rect width="17" height="17" fill="white" transform="translate(4 4)"/>
</clipPath>
</defs>
</svg>
