<svg width="26" height="25" viewBox="0 0 26 25" fill="none" xmlns="http://www.w3.org/2000/svg">
<path d="M7.91097 7.75381C7.87032 7.77704 7.83653 7.81059 7.81301 7.85108C7.78951 7.89157 7.77711 7.93755 7.7771 7.98438V18.0781C7.7771 18.2247 7.8961 18.3438 8.04272 18.3438H17.074C17.1444 18.3438 17.212 18.3158 17.2618 18.266C17.3116 18.2161 17.3396 18.1486 17.3396 18.0781V7.98438C17.3396 7.93755 17.3272 7.89157 17.3037 7.85108C17.2802 7.81059 17.2464 7.77704 17.2057 7.75381C17.0228 7.64786 16.8895 7.47359 16.8351 7.26936C16.7807 7.06512 16.8097 6.84763 16.9157 6.66475C17.0216 6.48187 17.1959 6.34856 17.4001 6.29417C17.6044 6.23977 17.8218 6.26873 18.0047 6.37469C18.5795 6.70725 18.9333 7.32031 18.9333 7.98438V18.0781C18.9333 18.5713 18.7375 19.0442 18.3888 19.3929C18.0401 19.7416 17.5671 19.9375 17.074 19.9375H8.04272C7.54959 19.9375 7.07665 19.7416 6.72795 19.3929C6.37925 19.0442 6.18335 18.5713 6.18335 18.0781V7.98438C6.18335 7.32031 6.53716 6.70725 7.11197 6.37469C7.29486 6.26873 7.51234 6.23977 7.71658 6.29417C7.92082 6.34856 8.09508 6.48187 8.20104 6.66475C8.30699 6.84763 8.33596 7.06512 8.28156 7.26936C8.22716 7.47359 8.09386 7.64786 7.91097 7.75381ZM10.1677 5.0625H14.949C15.1603 5.0625 15.363 5.14646 15.5125 5.2959C15.6619 5.44534 15.7458 5.64803 15.7458 5.85938V9.04688C15.7458 9.25822 15.6619 9.46091 15.5125 9.61035C15.363 9.75979 15.1603 9.84375 14.949 9.84375H10.1677C9.95638 9.84375 9.75369 9.75979 9.60425 9.61035C9.45481 9.46091 9.37085 9.25822 9.37085 9.04688V5.85938C9.37085 5.64803 9.45481 5.44534 9.60425 5.2959C9.75369 5.14646 9.95638 5.0625 10.1677 5.0625ZM10.9646 8.25H14.1521V6.65625H10.9646V8.25Z" fill="#BDBDBD"/>
</svg>
