<svg width="17" height="17" viewBox="0 0 17 17" fill="none" xmlns="http://www.w3.org/2000/svg">
<path d="M15.4062 12.2188H12.75C12.4683 12.2183 12.1983 12.1063 11.9992 11.9071C11.8 11.7079 11.6879 11.4379 11.6875 11.1562V7.96875C11.6878 7.68704 11.7998 7.41696 11.999 7.21776C12.1982 7.01856 12.4683 6.90653 12.75 6.90625H15.4062V7.96875H12.75V11.1562H15.4062V12.2188ZM9.5625 6.90625H7.4375V4.78125H6.375V12.2188H9.5625C9.84416 12.2183 10.1142 12.1063 10.3133 11.9071C10.5125 11.7079 10.6246 11.4379 10.625 11.1562V7.96875C10.6247 7.68704 10.5127 7.41696 10.3135 7.21776C10.1143 7.01856 9.84421 6.90653 9.5625 6.90625ZM7.4375 11.1562V7.96875H9.5625V11.1562H7.4375ZM4.25 4.78125H2.125C1.84329 4.78153 1.57321 4.89356 1.37401 5.09276C1.17481 5.29196 1.06278 5.56204 1.0625 5.84375V12.2188H2.125V9.5625H4.25V12.2188H5.3125V5.84375C5.31222 5.56204 5.20019 5.29196 5.00099 5.09276C4.80179 4.89356 4.53171 4.78153 4.25 4.78125ZM2.125 8.5V5.84375H4.25V8.5H2.125Z" fill="#BDBDBD"/>
</svg>
