<svg width="32" height="32" viewBox="0 0 32 32" fill="none" xmlns="http://www.w3.org/2000/svg">
<path fill-rule="evenodd" clip-rule="evenodd" d="M3.5 2C1.568 2 0 3.566 0 5.5V16.5C0 17.4283 0.368749 18.3185 1.02513 18.9749C1.6815 19.6313 2.57174 20 3.5 20H4V23.086C4.0002 23.6622 4.17121 24.2254 4.49142 24.7044C4.81163 25.1834 5.26666 25.5568 5.799 25.7772C6.33134 25.9977 6.91709 26.0554 7.48221 25.943C8.04734 25.8307 8.56647 25.5533 8.974 25.146L14.122 20H20.5C21.4283 20 22.3185 19.6313 22.9749 18.9749C23.6313 18.3185 24 17.4283 24 16.5V5.5C24 3.566 22.434 2 20.5 2H3.5ZM12 17C15.3137 17 18 14.3137 18 11C18 7.68629 15.3137 5 12 5C8.68629 5 6 7.68629 6 11C6 14.3137 8.68629 17 12 17Z" fill="#2F80ED"/>
<path d="M27.5 9H28.5C28.6326 9 28.7598 9.05268 28.8536 9.14645C28.9473 9.24021 29 9.36739 29 9.5V20.5C29 20.6326 28.9473 20.7598 28.8536 20.8536C28.7598 20.9473 28.6326 21 28.5 21H26.5C26.1022 21 25.7206 21.158 25.4393 21.4393C25.158 21.7206 25 22.1022 25 22.5V26.878L20.56 22.44C20.4208 22.3008 20.2555 22.1904 20.0737 22.115C19.8918 22.0397 19.6969 22.0009 19.5 22.0009C19.3031 22.0009 19.1082 22.0397 18.9263 22.115C18.7445 22.1904 18.5792 22.3008 18.44 22.44C18.3008 22.5792 18.1904 22.7445 18.115 22.9263C18.0397 23.1082 18.0009 23.3031 18.0009 23.5C18.0009 23.6969 18.0397 23.8918 18.115 24.0737C18.1904 24.2555 18.3008 24.4208 18.44 24.56L23.026 29.146C23.4335 29.5533 23.9527 29.8307 24.5178 29.943C25.0829 30.0554 25.6687 29.9977 26.201 29.7772C26.7333 29.5568 27.1884 29.1834 27.5086 28.7044C27.8288 28.2254 27.9998 27.6622 28 27.086V24H28.5C29.4283 24 30.3185 23.6313 30.9749 22.9749C31.6313 22.3185 32 21.4283 32 20.5V9.5C32 7.566 30.434 6 28.5 6H27.5C27.1022 6 26.7206 6.15804 26.4393 6.43934C26.158 6.72064 26 7.10218 26 7.5C26 7.89782 26.158 8.27936 26.4393 8.56066C26.7206 8.84196 27.1022 9 27.5 9Z" fill="#2F80ED"/>
</svg>
